<svg width="3465" height="917" xmlns="http://www.w3.org/2000/svg" xmlns:xlink="http://www.w3.org/1999/xlink" xml:space="preserve" overflow="hidden"><g transform="translate(-435 -641)"><g><rect x="493.5" y="648.5" width="650" height="195" stroke="#042433" stroke-width="6.875" stroke-linecap="butt" stroke-linejoin="miter" stroke-miterlimit="8" stroke-opacity="1" fill="#156082" fill-opacity="1"/><text fill="#FFFFFF" fill-opacity="1" font-family="Menlo,Menlo_MSFontService,sans-serif" font-style="normal" font-variant="normal" font-weight="400" font-stretch="normal" font-size="73" text-anchor="start" direction="ltr" writing-mode="lr-tb" unicode-bidi="normal" text-decoration="none" transform="matrix(1 0 0 1 553.128 771)">mountnstable</text><rect x="493.5" y="885.5" width="650" height="194" stroke="#156082" stroke-width="6.875" stroke-linecap="butt" stroke-linejoin="miter" stroke-miterlimit="8" stroke-opacity="1" fill="#FFFFFF" fill-opacity="1"/><rect x="493.5" y="1121.5" width="650" height="195" stroke="#156082" stroke-width="6.875" stroke-linecap="butt" stroke-linejoin="miter" stroke-miterlimit="8" stroke-opacity="1" fill="#FFFFFF" fill-opacity="1"/><rect x="493.5" y="1357.5" width="650" height="194" stroke="#156082" stroke-width="6.875" stroke-linecap="butt" stroke-linejoin="miter" stroke-miterlimit="8" stroke-opacity="1" fill="#FFFFFF" fill-opacity="1"/><text fill="#000000" fill-opacity="1" font-family="Menlo,Menlo_MSFontService,sans-serif" font-style="normal" font-variant="normal" font-weight="400" font-stretch="normal" font-size="83" text-anchor="start" direction="ltr" writing-mode="lr-tb" unicode-bidi="normal" text-decoration="none" transform="matrix(1 0 0 1 792.893 1484)">…</text><text fill="#000000" fill-opacity="1" font-family="Arial,Arial_MSFontService,sans-serif" font-style="normal" font-variant="normal" font-weight="400" font-stretch="normal" font-size="83" text-anchor="start" direction="ltr" writing-mode="lr-tb" unicode-bidi="normal" text-decoration="none" transform="matrix(1 0 0 1 842.737 1484)"> </text><path d="M4.77431e-06-3.4375 236.926-3.43717 236.926 3.43783-4.77431e-06 3.4375ZM232.343-13.7497 259.843 0.000360892 232.342 13.7503Z" fill="#156082" fill-rule="nonzero" fill-opacity="1" transform="matrix(1 0 0 -1 1143.5 1009.5)"/><rect x="1402.5" y="940.5" width="650" height="137" stroke="#156082" stroke-width="6.875" stroke-linecap="butt" stroke-linejoin="miter" stroke-miterlimit="8" stroke-opacity="1" fill="#FFFFFF" fill-opacity="1"/><text fill="#000000" fill-opacity="1" font-family="Menlo,Menlo_MSFontService,sans-serif" font-style="normal" font-variant="normal" font-weight="400" font-stretch="normal" font-size="73" text-anchor="start" direction="ltr" writing-mode="lr-tb" unicode-bidi="normal" text-decoration="none" transform="matrix(1 0 0 1 1616.98 1035)">mount</text><text fill="#000000" fill-opacity="1" font-family="Arial,Arial_MSFontService,sans-serif" font-style="normal" font-variant="normal" font-weight="400" font-stretch="normal" font-size="73" text-anchor="start" direction="ltr" writing-mode="lr-tb" unicode-bidi="normal" text-decoration="none" transform="matrix(1 0 0 1 1837.55 1035)"> </text><path d="M9.54861e-06-3.4375 107.005-3.4372 107.005 3.4378-9.54861e-06 3.4375ZM102.421-13.7497 129.921 0.000360892 102.421 13.7503Z" fill="#156082" fill-rule="nonzero" fill-opacity="1" transform="matrix(1 0 0 -1 2052.5 1009.5)"/><rect x="2180.5" y="940.5" width="650" height="137" stroke="#156082" stroke-width="6.875" stroke-linecap="butt" stroke-linejoin="miter" stroke-miterlimit="8" stroke-opacity="1" fill="#FFFFFF" fill-opacity="1"/><text fill="#000000" fill-opacity="1" font-family="Menlo,Menlo_MSFontService,sans-serif" font-style="normal" font-variant="normal" font-weight="400" font-stretch="normal" font-size="73" text-anchor="start" direction="ltr" writing-mode="lr-tb" unicode-bidi="normal" text-decoration="none" transform="matrix(1 0 0 1 2394.81 1035)">mount</text><text fill="#000000" fill-opacity="1" font-family="Arial,Arial_MSFontService,sans-serif" font-style="normal" font-variant="normal" font-weight="400" font-stretch="normal" font-size="73" text-anchor="start" direction="ltr" writing-mode="lr-tb" unicode-bidi="normal" text-decoration="none" transform="matrix(1 0 0 1 2615.38 1035)"> </text><path d="M9.54861e-06-3.4375 107.005-3.4372 107.005 3.4378-9.54861e-06 3.4375ZM102.421-13.7497 129.921 0.000360892 102.421 13.7503Z" fill="#156082" fill-rule="nonzero" fill-opacity="1" transform="matrix(1 0 0 -1 2830.5 1009.5)"/><rect x="2958.5" y="940.5" width="650" height="137" stroke="#156082" stroke-width="6.875" stroke-linecap="butt" stroke-linejoin="miter" stroke-miterlimit="8" stroke-opacity="1" fill="#FFFFFF" fill-opacity="1"/><text fill="#000000" fill-opacity="1" font-family="Menlo,Menlo_MSFontService,sans-serif" font-style="normal" font-variant="normal" font-weight="400" font-stretch="normal" font-size="73" text-anchor="start" direction="ltr" writing-mode="lr-tb" unicode-bidi="normal" text-decoration="none" transform="matrix(1 0 0 1 3172.64 1035)">mount</text><text fill="#000000" fill-opacity="1" font-family="Arial,Arial_MSFontService,sans-serif" font-style="normal" font-variant="normal" font-weight="400" font-stretch="normal" font-size="73" text-anchor="start" direction="ltr" writing-mode="lr-tb" unicode-bidi="normal" text-decoration="none" transform="matrix(1 0 0 1 3393.21 1035)"> </text><path d="M4.77431e-06-3.4375 27.5-3.43746 27.5 3.43754-4.77431e-06 3.4375ZM48.125-3.43743 75.625-3.43739 75.625 3.4376 48.125 3.43757ZM96.25-3.43737 123.75-3.43733 123.75 3.43767 96.25 3.43763ZM144.375-3.4373 171.875-3.43726 171.875 3.43774 144.375 3.4377ZM192.5-3.43723 220-3.43719 220 3.43781 192.5 3.43777ZM232.343-13.7497 259.843 0.000360892 232.342 13.7503Z" fill="#156082" fill-rule="nonzero" fill-opacity="1" transform="matrix(1 0 0 -1 3608.5 1009.5)"/><path d="M0-3.4375 186.949-3.4375 186.949 89.0368 183.512 85.5993 1362.48 85.5993 1359.04 89.0368 1359.04 29.4535 1365.92 29.4535 1365.92 92.4743 180.074 92.4743 180.074 0 183.512 3.4375 0 3.4375ZM1348.73 34.0368 1362.48 6.53684 1376.23 34.0368Z" fill="#156082" fill-rule="nonzero" fill-opacity="1" transform="matrix(1 0 0 -1 1143.5 947.037)"/><path d="M4.77431e-06-3.4375 236.926-3.43717 236.926 3.43783-4.77431e-06 3.4375ZM232.343-13.7497 259.843 0.000360892 232.342 13.7503Z" fill="#156082" fill-rule="nonzero" fill-opacity="1" transform="matrix(1 0 0 -1 1143.5 1274.5)"/><rect x="1402.5" y="1205.5" width="650" height="137" stroke="#156082" stroke-width="6.875" stroke-linecap="butt" stroke-linejoin="miter" stroke-miterlimit="8" stroke-opacity="1" fill="#FFFFFF" fill-opacity="1"/><text fill="#000000" fill-opacity="1" font-family="Menlo,Menlo_MSFontService,sans-serif" font-style="normal" font-variant="normal" font-weight="400" font-stretch="normal" font-size="73" text-anchor="start" direction="ltr" writing-mode="lr-tb" unicode-bidi="normal" text-decoration="none" transform="matrix(1 0 0 1 1616.98 1300)">mount</text><text fill="#000000" fill-opacity="1" font-family="Arial,Arial_MSFontService,sans-serif" font-style="normal" font-variant="normal" font-weight="400" font-stretch="normal" font-size="73" text-anchor="start" direction="ltr" writing-mode="lr-tb" unicode-bidi="normal" text-decoration="none" transform="matrix(1 0 0 1 1837.55 1300)"> </text><path d="M9.54861e-06-3.4375 107.005-3.4372 107.005 3.4378-9.54861e-06 3.4375ZM102.421-13.7497 129.921 0.000360892 102.421 13.7503Z" fill="#156082" fill-rule="nonzero" fill-opacity="1" transform="matrix(1 0 0 -1 2052.5 1274.5)"/><rect x="2180.5" y="1205.5" width="650" height="137" stroke="#156082" stroke-width="6.875" stroke-linecap="butt" stroke-linejoin="miter" stroke-miterlimit="8" stroke-opacity="1" fill="#FFFFFF" fill-opacity="1"/><text fill="#000000" fill-opacity="1" font-family="Menlo,Menlo_MSFontService,sans-serif" font-style="normal" font-variant="normal" font-weight="400" font-stretch="normal" font-size="73" text-anchor="start" direction="ltr" writing-mode="lr-tb" unicode-bidi="normal" text-decoration="none" transform="matrix(1 0 0 1 2394.81 1300)">mount</text><text fill="#000000" fill-opacity="1" font-family="Arial,Arial_MSFontService,sans-serif" font-style="normal" font-variant="normal" font-weight="400" font-stretch="normal" font-size="73" text-anchor="start" direction="ltr" writing-mode="lr-tb" unicode-bidi="normal" text-decoration="none" transform="matrix(1 0 0 1 2615.38 1300)"> </text><path d="M9.54861e-06-3.4375 107.005-3.4372 107.005 3.4378-9.54861e-06 3.4375ZM102.421-13.7497 129.921 0.000360892 102.421 13.7503Z" fill="#156082" fill-rule="nonzero" fill-opacity="1" transform="matrix(1 0 0 -1 2830.5 1274.5)"/><rect x="2958.5" y="1205.5" width="650" height="137" stroke="#156082" stroke-width="6.875" stroke-linecap="butt" stroke-linejoin="miter" stroke-miterlimit="8" stroke-opacity="1" fill="#FFFFFF" fill-opacity="1"/><text fill="#000000" fill-opacity="1" font-family="Menlo,Menlo_MSFontService,sans-serif" font-style="normal" font-variant="normal" font-weight="400" font-stretch="normal" font-size="73" text-anchor="start" direction="ltr" writing-mode="lr-tb" unicode-bidi="normal" text-decoration="none" transform="matrix(1 0 0 1 3172.64 1300)">mount</text><text fill="#000000" fill-opacity="1" font-family="Arial,Arial_MSFontService,sans-serif" font-style="normal" font-variant="normal" font-weight="400" font-stretch="normal" font-size="73" text-anchor="start" direction="ltr" writing-mode="lr-tb" unicode-bidi="normal" text-decoration="none" transform="matrix(1 0 0 1 3393.21 1300)"> </text><path d="M4.77431e-06-3.4375 27.5-3.43746 27.5 3.43754-4.77431e-06 3.4375ZM48.125-3.43743 75.625-3.43739 75.625 3.4376 48.125 3.43757ZM96.25-3.43737 123.75-3.43733 123.75 3.43767 96.25 3.43763ZM144.375-3.4373 171.875-3.43726 171.875 3.43774 144.375 3.4377ZM192.5-3.43723 220-3.43719 220 3.43781 192.5 3.43777ZM232.343-13.7497 259.843 0.000360892 232.342 13.7503Z" fill="#156082" fill-rule="nonzero" fill-opacity="1" transform="matrix(1 0 0 -1 3608.5 1274.5)"/><path d="M1143.5 1148.06 1731.58 1148.06 1731.58 1182.58 1724.71 1182.58 1724.71 1151.5 1728.15 1154.94 1143.5 1154.94ZM1741.9 1177.99 1728.15 1205.49 1714.4 1177.99Z" fill="#156082" fill-rule="nonzero" fill-opacity="1"/><text fill="#000000" fill-opacity="1" font-family="Menlo,Menlo_MSFontService,sans-serif" font-style="normal" font-variant="normal" font-weight="400" font-stretch="normal" font-size="64" text-anchor="start" direction="ltr" writing-mode="lr-tb" unicode-bidi="normal" text-decoration="none" transform="matrix(1 0 0 1 728.249 970)">root</text><text fill="#000000" fill-opacity="1" font-family="Menlo,Menlo_MSFontService,sans-serif" font-style="normal" font-variant="normal" font-weight="400" font-stretch="normal" font-size="64" text-anchor="start" direction="ltr" writing-mode="lr-tb" unicode-bidi="normal" text-decoration="none" transform="matrix(1 0 0 1 555.503 1034)">active_mounts</text><text fill="#000000" fill-opacity="1" font-family="Menlo,Menlo_MSFontService,sans-serif" font-style="normal" font-variant="normal" font-weight="400" font-stretch="normal" font-size="64" text-anchor="start" direction="ltr" writing-mode="lr-tb" unicode-bidi="normal" text-decoration="none" transform="matrix(1 0 0 1 743.402 1207)">root</text><text fill="#000000" fill-opacity="1" font-family="Menlo,Menlo_MSFontService,sans-serif" font-style="normal" font-variant="normal" font-weight="400" font-stretch="normal" font-size="64" text-anchor="start" direction="ltr" writing-mode="lr-tb" unicode-bidi="normal" text-decoration="none" transform="matrix(1 0 0 1 570.656 1271)">active_mounts</text></g></g></svg>